<?xml version="1.0" standalone="no"?>
<!DOCTYPE svg PUBLIC "-//W3C//DTD SVG 20010904//EN"
 "http://www.w3.org/TR/2001/REC-SVG-20010904/DTD/svg10.dtd">
<svg version="1.0" xmlns="http://www.w3.org/2000/svg"
 width="1024.000000pt" height="1024.000000pt" viewBox="0 0 1024.000000 1024.000000"
 preserveAspectRatio="xMidYMid meet">

<g transform="translate(0.000000,1024.000000) scale(0.100000,-0.100000)"
fill="#000000" stroke="none">
<path d="M5295 7690 c-4 -6 -10 -8 -14 -6 -4 3 -27 -14 -50 -38 -24 -24 -39
-46 -34 -49 5 -4 34 18 63 48 30 30 51 55 48 55 -4 0 -10 -5 -13 -10z m-15
-13 c0 -2 -19 -21 -42 -42 l-43 -40 40 43 c36 39 45 47 45 39z"/>
<path d="M4517 7659 c7 -7 15 -10 18 -7 3 3 -2 9 -12 12 -14 6 -15 5 -6 -5z"/>
<path d="M4424 7618 l-29 -33 33 29 c30 28 37 36 29 36 -2 0 -16 -15 -33 -32z"/>
<path d="M5007 7619 c4 -13 8 -18 11 -10 2 7 -1 18 -6 23 -8 8 -9 4 -5 -13z"/>
<path d="M4625 7620 c27 -12 43 -12 25 0 -8 5 -22 9 -30 9 -10 0 -8 -3 5 -9z"/>
<path d="M4171 7598 c-1 -25 2 -28 32 -27 29 2 29 2 5 6 -18 3 -28 12 -31 26
-4 18 -5 17 -6 -5z"/>
<path d="M4445 7560 l-49 -50 -123 6 c-110 6 -123 5 -123 -9 0 -10 5 -17 11
-17 5 0 7 5 4 10 -8 13 135 13 155 0 11 -7 6 -10 -22 -10 -20 0 -40 -5 -44
-12 -4 -6 -3 -8 3 -5 5 3 42 7 81 8 70 2 71 2 114 48 37 39 37 41 6 11 -44
-39 -52 -27 -10 14 41 39 70 40 165 7 123 -42 122 -41 164 -139 8 -19 10 -31
5 -28 -5 3 -20 -18 -33 -47 -13 -28 -37 -66 -53 -84 -25 -30 -34 -33 -81 -33
-52 0 -188 41 -210 63 -7 7 -5 8 6 5 10 -4 4 15 -20 62 -20 38 -39 66 -44 63
-4 -2 -25 4 -47 16 -39 20 -143 44 -135 31 3 -4 21 -11 42 -15 89 -16 108 -31
148 -113 60 -124 69 -152 56 -165 -14 -14 -75 43 -91 87 -20 53 -33 76 -43 76
-5 0 -4 -6 2 -13 13 -16 5 -28 -14 -21 -7 3 -16 0 -20 -6 -6 -9 -10 -9 -16 1
-5 8 -9 19 -9 24 0 6 4 4 8 -3 11 -16 41 -5 38 13 -2 11 -96 108 -96 99 0 -13
69 -192 91 -236 16 -31 80 -133 143 -227 126 -187 134 -208 122 -329 -4 -37
-16 -103 -27 -147 -25 -101 -109 -367 -119 -378 -10 -12 -141 79 -247 172
-224 196 -366 449 -430 766 -13 67 -18 136 -18 270 0 183 -10 163 -16 -30 -1
-55 -4 -81 -6 -57 -4 40 -6 43 -31 40 -19 -2 -29 -11 -34 -28 -4 -14 -6 43 -4
125 2 118 1 137 -6 90 -13 -84 -3 -363 16 -466 100 -542 523 -1010 1056 -1167
47 -13 87 -26 88 -28 7 -6 -162 -247 -210 -300 -28 -30 -102 -95 -166 -146
-98 -77 -116 -88 -124 -74 -23 41 -305 360 -334 379 -9 5 -96 -75 -256 -233
-134 -131 -243 -240 -244 -240 0 0 -25 31 -55 70 -30 38 -59 71 -66 74 -6 3
-33 -25 -60 -62 -27 -37 -173 -215 -324 -397 -635 -762 -694 -836 -661 -835 4
1 26 5 50 9 38 7 42 7 36 -8 -20 -49 -19 -51 34 -51 51 0 671 56 730 65 38 7
41 -3 7 -35 -31 -29 -32 -50 -2 -50 19 0 221 26 553 71 73 10 122 6 544 -41
255 -28 480 -50 499 -47 20 2 79 16 131 30 167 47 311 76 299 61 -15 -18 -10
-18 37 5 86 41 118 36 43 -7 -22 -13 -38 -27 -34 -30 4 -4 210 -6 458 -4 l452
3 221 -30 c189 -26 255 -30 458 -32 131 0 240 2 243 5 8 8 -38 94 -64 119 -31
30 -29 34 12 29 19 -2 42 1 49 7 25 21 382 14 771 -14 180 -13 201 -11 192 20
-5 16 -204 190 -287 252 -41 31 -183 163 -315 294 -132 131 -253 248 -270 261
-94 71 -339 286 -460 403 -77 74 -144 135 -150 135 -17 0 -145 -88 -241 -166
-50 -41 -96 -74 -102 -74 -25 0 -195 110 -302 195 -117 94 -252 251 -339 398
-17 28 -20 38 -9 42 7 2 42 14 78 25 297 98 607 344 785 625 53 83 128 244
159 342 30 96 59 258 54 299 -2 16 -7 -6 -12 -49 -7 -70 -9 -76 -22 -60 -13
16 -13 15 -3 -8 7 -18 7 -35 0 -60 l-11 -34 5 36 c3 21 -1 50 -9 70 l-15 34
-1 -33 c0 -24 -4 -31 -12 -26 -9 5 -9 2 1 -9 22 -28 -6 -20 -31 8 -23 26 -38
32 -38 14 0 -5 4 -8 9 -4 6 3 9 -4 8 -15 -1 -11 -3 -20 -6 -20 -29 0 -131 24
-131 31 0 12 -57 69 -69 69 -4 0 -13 10 -20 23 -10 19 -11 19 -7 2 2 -11 7
-29 11 -40 7 -16 5 -18 -5 -8 -15 14 -17 56 -6 123 3 25 -5 2 -20 -50 -15 -52
-27 -108 -27 -123 0 -16 -3 -24 -7 -18 -3 7 -19 -20 -34 -58 -102 -260 -326
-496 -536 -562 -91 -30 -251 -37 -317 -15 -63 21 -78 46 -70 117 12 102 54
129 200 129 109 0 167 22 205 80 22 31 23 43 19 110 -6 74 -6 75 26 102 32 27
32 27 15 57 -17 31 -17 31 8 47 36 24 39 55 12 105 -30 58 -39 79 -30 77 4 -2
33 10 65 26 46 23 57 33 57 52 0 21 -45 104 -57 104 -5 0 3 -15 29 -52 10 -14
18 -37 18 -50 0 -37 -88 -70 -223 -82 -15 -2 -30 -6 -34 -10 -13 -13 -42 -5
-56 15 -12 16 -24 20 -57 18 -28 -2 -44 1 -51 11 -8 13 -11 13 -22 -2 -12 -15
-14 -15 -24 1 -9 15 -22 18 -67 15 -44 -2 -56 0 -56 11 0 11 -12 15 -40 15
-22 0 -49 6 -60 13 -17 10 -22 9 -29 -2 -7 -10 -9 -11 -13 0 -2 7 -21 13 -44
13 -21 1 -43 6 -47 11 -6 6 -10 6 -14 -2 -2 -7 -13 -13 -24 -13 -17 0 -25 17
-20 44 1 5 -4 4 -12 -3 -19 -15 -27 4 -27 63 0 40 -28 142 -36 133 -2 -2 3
-23 11 -47 26 -74 20 -115 -30 -200 -73 -125 -72 -124 -228 -121 -72 1 -133 4
-134 5 -2 1 6 12 16 23 18 19 28 20 130 15 82 -3 115 -1 126 8 21 17 80 125
100 179 14 40 13 45 -3 70 -10 14 -23 37 -30 51 -10 19 -39 35 -125 68 -62 23
-120 42 -128 42 -8 0 -37 -23 -64 -50z m-30 -60 c-3 -5 -11 -10 -16 -10 -6 0
-7 5 -4 10 3 6 11 10 16 10 6 0 7 -4 4 -10z m-42 -7 c-7 -2 -19 -2 -25 0 -7 3
-2 5 12 5 14 0 19 -2 13 -5z m461 -185 c-3 -31 -3 -30 -14 -23 -7 4 -7 13 0
26 14 25 17 24 14 -3z m-359 -59 c3 -4 -3 -9 -15 -12 -11 -3 -23 -1 -26 4 -3
5 -10 7 -15 4 -5 -4 -9 -2 -9 3 0 10 55 11 65 1z m-878 -71 c-3 -7 -5 -2 -5
12 0 14 2 19 5 13 2 -7 2 -19 0 -25z m2027 -9 c-3 -5 -10 -7 -15 -3 -5 3 -7
10 -3 15 3 5 10 7 15 3 5 -3 7 -10 3 -15z"/>
<path d="M4710 7590 c8 -5 22 -9 30 -9 10 0 8 3 -5 9 -27 12 -43 12 -25 0z"/>
<path d="M4358 7583 c6 -2 18 -2 25 0 6 3 1 5 -13 5 -14 0 -19 -2 -12 -5z"/>
<path d="M4992 7564 c9 -9 21 -15 27 -13 6 2 -2 10 -17 17 -25 11 -25 11 -10
-4z"/>
<path d="M5254 7558 l-19 -23 23 19 c21 18 27 26 19 26 -2 0 -12 -10 -23 -22z"/>
<path d="M3602 7550 c0 -14 2 -19 5 -12 2 6 2 18 0 25 -3 6 -5 1 -5 -13z"/>
<path d="M5048 7563 c6 -2 18 -2 25 0 6 3 1 5 -13 5 -14 0 -19 -2 -12 -5z"/>
<path d="M3692 7540 c0 -14 2 -19 5 -12 2 6 2 18 0 25 -3 6 -5 1 -5 -13z"/>
<path d="M5662 7510 c0 -14 2 -19 5 -12 2 6 2 18 0 25 -3 6 -5 1 -5 -13z"/>
<path d="M6562 7480 c0 -14 2 -19 5 -12 2 6 2 18 0 25 -3 6 -5 1 -5 -13z"/>
<path d="M5690 7406 c0 -8 4 -17 9 -20 5 -4 7 3 4 14 -6 23 -13 26 -13 6z"/>
<path d="M6574 7290 c0 -63 1 -89 3 -57 2 31 2 83 0 115 -2 31 -3 5 -3 -58z"/>
<path d="M6223 7335 c0 -22 2 -30 4 -17 2 12 2 30 0 40 -3 9 -5 -1 -4 -23z"/>
<path d="M6212 7265 c0 -16 2 -22 5 -12 2 9 2 23 0 30 -3 6 -5 -1 -5 -18z"/>
<path d="M5548 7203 c6 -2 18 -2 25 0 6 3 1 5 -13 5 -14 0 -19 -2 -12 -5z"/>
<path d="M1975 3547 c-98 -33 -166 -96 -198 -185 -26 -72 -26 -193 0 -253 45
-101 134 -162 254 -175 69 -7 186 16 201 39 4 7 8 29 8 49 l0 37 -47 -21 c-67
-30 -167 -29 -217 1 -72 45 -106 114 -106 216 0 128 74 211 198 222 50 4 64 1
115 -25 l57 -31 0 50 c0 48 -1 51 -37 66 -50 21 -177 27 -228 10z"/>
<path d="M2607 3553 c-3 -5 -52 -125 -110 -268 -58 -143 -113 -277 -121 -297
l-16 -38 48 0 48 0 23 70 22 70 99 0 99 0 21 -57 c11 -32 23 -64 25 -70 3 -9
26 -13 66 -13 45 0 60 3 56 13 -2 6 -52 134 -110 282 -57 149 -108 280 -111
293 -7 21 -30 30 -39 15z m26 -288 c14 -38 29 -78 33 -87 5 -16 -1 -18 -65
-18 -39 0 -71 3 -71 6 0 19 65 183 70 176 4 -4 18 -38 33 -77z"/>
<path d="M5511 3538 c-15 -38 -208 -510 -225 -550 l-16 -38 48 0 49 0 24 70
24 71 100 -3 100 -3 24 -67 23 -68 59 0 c33 0 59 4 59 8 0 5 -26 73 -58 153
-32 79 -84 213 -116 297 -59 152 -77 177 -95 130z m37 -276 c18 -48 32 -90 32
-94 0 -5 -32 -8 -71 -8 -64 0 -70 2 -64 18 3 9 18 52 33 94 15 43 29 78 32 78
3 0 20 -40 38 -88z"/>
<path d="M7847 3553 c-3 -5 -32 -75 -65 -158 -33 -82 -79 -195 -102 -250 -22
-55 -50 -121 -60 -147 l-20 -48 48 0 48 0 23 70 22 71 101 -3 100 -3 25 -67
25 -68 59 0 c33 0 59 3 59 7 0 4 -52 141 -116 305 -106 271 -130 319 -147 291z
m31 -292 c17 -48 32 -91 32 -95 0 -3 -32 -6 -71 -6 -53 0 -70 3 -67 13 3 6 18
49 34 95 16 45 31 82 34 82 3 0 20 -40 38 -89z"/>
<path d="M3095 3518 c-7 -42 -85 -557 -85 -563 0 -3 18 -5 40 -5 31 0 40 4 40
18 1 9 9 93 18 186 l18 169 50 -104 c27 -57 68 -143 89 -192 32 -69 44 -87 59
-85 14 2 39 48 99 181 44 97 82 176 84 174 3 -4 33 -296 33 -329 0 -15 9 -18
58 -18 l57 0 -26 218 c-15 119 -31 253 -35 297 -8 70 -12 80 -30 83 -17 3 -32
-25 -115 -218 -52 -121 -96 -220 -99 -220 -3 0 -21 35 -39 78 -92 206 -175
362 -192 362 -13 0 -20 -10 -24 -32z"/>
<path d="M4328 3545 c-5 -5 -8 -140 -8 -302 l0 -293 55 0 55 0 0 125 c0 167
10 167 110 0 l75 -125 62 0 c35 0 63 2 63 5 0 3 -38 61 -85 129 -47 68 -85
128 -85 132 1 5 15 18 32 29 55 35 73 69 73 140 0 117 -51 154 -227 162 -62 3
-116 2 -120 -2z m174 -76 c57 -15 83 -78 58 -143 -11 -31 -44 -52 -92 -61
l-38 -7 0 111 c0 124 -2 121 72 100z"/>
<path d="M5958 3544 c-17 -5 -18 -28 -18 -300 l0 -294 55 0 55 0 0 125 c0 115
2 125 18 125 13 0 37 -31 79 -102 90 -152 87 -150 159 -146 l61 3 -88 125
c-49 69 -88 130 -88 135 -1 6 14 17 31 26 51 24 72 61 76 132 3 52 0 67 -20
96 -39 58 -72 71 -194 76 -60 2 -117 2 -126 -1z m185 -80 c42 -13 61 -109 31
-153 -18 -25 -71 -51 -104 -51 -19 0 -20 6 -20 111 l0 111 38 -6 c20 -4 45 -9
55 -12z"/>
<path d="M6536 3293 c-21 -142 -42 -277 -46 -300 l-7 -43 38 0 c37 0 38 1 43
43 10 71 26 240 28 280 1 20 4 37 8 37 3 0 15 -19 25 -42 85 -194 155 -328
172 -328 14 0 37 44 98 182 92 210 85 212 106 -29 l12 -143 59 0 c52 0 59 2
54 18 -4 13 -66 553 -66 576 0 3 -11 6 -24 6 -20 0 -30 -15 -77 -127 -29 -71
-72 -171 -96 -223 l-42 -95 -42 90 c-22 50 -68 146 -100 214 -32 68 -59 128
-59 132 0 5 -10 9 -23 9 -23 0 -24 -6 -61 -257z"/>
<path d="M8313 3542 l-43 -3 0 -295 0 -294 61 0 61 0 -4 297 c-4 246 -7 296
-19 297 -8 1 -33 0 -56 -2z"/>
<path d="M3840 3245 l0 -295 158 0 157 0 0 33 0 32 -100 5 -100 5 -3 98 -3 97
91 0 90 0 0 35 0 34 -87 3 -88 3 -3 82 -3 82 98 3 98 3 3 38 3 37 -155 0 -156
0 0 -295z"/>
<path d="M4890 3245 l0 -295 55 0 55 0 0 125 0 125 91 0 90 0 -3 38 -3 37 -87
3 -88 3 0 89 0 90 90 0 90 0 0 40 0 40 -145 0 -145 0 0 -295z"/>
<path d="M881 2352 c-52 -26 -74 -63 -74 -120 1 -27 6 -59 13 -71 19 -37 70
-61 129 -61 49 0 57 3 92 39 36 35 39 43 39 93 0 64 -23 102 -76 124 -45 19
-82 18 -123 -4z m108 -26 c76 -40 65 -173 -15 -195 -66 -18 -124 30 -124 104
0 82 68 127 139 91z"/>
<path d="M1554 2360 c-11 -4 -26 -21 -33 -37 -17 -41 -1 -75 51 -110 31 -21
43 -36 43 -53 0 -21 -5 -26 -35 -28 -24 -3 -38 2 -48 15 -12 16 -13 15 -10
-12 3 -27 7 -30 44 -33 50 -4 81 19 90 65 7 34 -12 59 -81 109 -25 18 -28 25
-19 40 15 26 51 29 75 8 18 -16 19 -16 19 8 0 36 -44 49 -96 28z"/>
<path d="M2205 2358 c-4 -10 -5 -70 -3 -135 3 -99 6 -118 19 -121 15 -3 17 9
15 87 0 50 1 91 4 91 3 0 39 -41 80 -90 41 -50 78 -90 82 -90 4 0 8 59 8 130
0 109 -2 130 -15 130 -12 0 -15 -17 -15 -87 l-1 -88 -47 55 c-106 123 -120
136 -127 118z"/>
<path d="M2555 2345 c-27 -26 -33 -71 -12 -97 6 -9 31 -28 55 -42 49 -30 54
-57 15 -75 -23 -11 -30 -9 -55 9 l-28 21 0 -25 c0 -27 16 -36 64 -36 89 0 114
105 35 148 -18 9 -41 25 -51 35 -42 40 30 80 74 40 17 -15 18 -15 18 9 0 44
-76 53 -115 13z"/>
<path d="M3056 2360 c-8 -22 -45 -254 -41 -259 2 -2 11 -1 19 2 10 4 17 30 22
86 3 45 9 81 13 81 3 -1 21 -35 40 -78 19 -42 38 -81 43 -86 4 -6 25 27 45 72
21 45 41 82 44 82 3 0 9 -29 13 -65 8 -82 13 -95 38 -95 17 0 20 5 15 28 -3
15 -11 73 -18 130 -7 57 -18 102 -23 102 -6 0 -26 -33 -44 -74 -56 -125 -52
-125 -110 -11 -31 63 -52 94 -56 85z"/>
<path d="M4700 2353 c-42 -22 -80 -76 -80 -115 0 -38 22 -88 49 -112 27 -24
110 -33 151 -16 86 36 105 177 30 230 -41 29 -107 35 -150 13z m113 -33 c36
-29 52 -81 37 -125 -31 -92 -155 -88 -180 6 -14 50 -5 83 32 114 36 30 76 32
111 5z"/>
<path d="M5170 2272 c0 -115 -12 -142 -64 -142 -55 0 -66 22 -66 133 0 90 -1
97 -20 97 -19 0 -20 -7 -20 -105 0 -99 2 -107 25 -130 18 -19 35 -25 69 -25
59 0 74 7 91 41 21 40 21 215 0 223 -13 4 -15 -10 -15 -92z"/>
<path d="M6120 2238 c0 -116 2 -138 15 -138 12 0 14 14 8 90 -3 51 -2 90 3 90
5 -1 42 -41 83 -90 41 -50 78 -90 83 -90 4 0 8 59 8 130 0 109 -2 130 -15 130
-12 0 -15 -16 -15 -87 l0 -88 -47 55 c-27 30 -65 73 -85 95 l-37 40 -1 -137z"/>
<path d="M6954 2348 c-4 -13 -26 -69 -50 -125 -24 -57 -44 -107 -44 -113 0
-24 31 -7 44 25 14 33 18 35 60 35 43 0 47 -2 60 -35 11 -25 21 -35 37 -35 16
0 20 4 15 18 -40 107 -101 252 -107 252 -4 0 -11 -10 -15 -22z m15 -146 c-17
-2 -33 -1 -36 1 -2 3 3 22 13 43 l16 39 19 -40 18 -40 -30 -3z"/>
<path d="M7238 2354 c-78 -33 -99 -149 -39 -216 29 -33 90 -46 155 -34 l36 7
0 54 c0 48 -2 55 -20 55 -17 0 -20 -7 -20 -45 l0 -45 -43 0 c-62 0 -100 41
-100 106 0 40 4 51 31 76 36 31 72 36 115 14 26 -14 27 -14 27 8 0 37 -75 47
-142 20z"/>
<path d="M8003 2350 c-115 -70 -79 -250 50 -250 60 0 87 10 87 30 0 15 -5 16
-38 7 -79 -21 -128 19 -126 102 1 37 7 49 33 73 35 32 75 36 109 12 21 -14 22
-14 22 9 0 17 -7 27 -22 31 -42 11 -83 6 -115 -14z"/>
<path d="M9377 2362 l-38 -3 3 -127 c3 -111 5 -127 21 -130 14 -3 17 5 17 53
0 71 15 71 62 0 20 -31 42 -51 56 -53 30 -4 28 3 -14 64 l-36 51 26 26 c29 29
33 62 11 94 -16 22 -48 30 -108 25z m46 -31 c34 -13 44 -47 21 -72 -31 -34
-52 -25 -56 27 -4 58 -3 59 35 45z"/>
<path d="M543 2348 c2 -7 19 -13 38 -13 l34 0 3 -118 c2 -108 4 -117 22 -117
18 0 20 9 22 118 2 84 6 117 16 118 6 1 23 2 37 3 14 0 25 6 25 11 0 6 -40 10
-101 10 -76 0 -100 -3 -96 -12z"/>
<path d="M1200 2251 c0 -106 1 -110 26 -130 40 -32 113 -29 145 5 22 23 24 36
27 130 3 90 2 104 -12 104 -13 0 -16 -14 -16 -87 0 -113 -12 -137 -66 -141
-59 -4 -66 9 -65 128 1 94 0 100 -19 100 -19 0 -20 -7 -20 -109z"/>
<path d="M1950 2230 l0 -130 70 0 c63 0 70 2 70 20 0 17 -7 20 -50 20 l-50 0
0 40 0 40 40 0 c29 0 40 4 40 15 0 11 -11 15 -40 15 l-40 0 0 45 0 45 45 -7
c38 -5 45 -3 45 11 0 13 -11 16 -65 16 l-65 0 0 -130z"/>
<path d="M2780 2230 l0 -130 70 0 c60 0 70 3 70 18 0 14 -9 17 -47 17 l-48 0
-3 43 -3 42 40 0 c30 0 41 4 41 15 0 11 -11 15 -41 15 l-40 0 3 43 3 42 48 3
c73 5 55 22 -23 22 l-70 0 0 -130z"/>
<path d="M3417 2233 l2 -128 27 -3 c105 -13 171 62 110 123 -20 20 -22 26 -10
36 8 6 14 26 14 45 0 42 -21 54 -92 54 l-53 0 2 -127z m84 97 c37 -20 15 -80
-30 -80 -6 0 -11 20 -11 45 0 46 7 53 41 35z m21 -127 c25 -22 23 -39 -7 -59
-40 -26 -59 -15 -59 34 -1 38 1 42 23 42 14 0 33 -7 43 -17z"/>
<path d="M3700 2230 l0 -130 70 0 c60 0 70 3 70 18 0 14 -8 16 -50 14 l-50 -4
0 116 c0 109 -1 116 -20 116 -19 0 -20 -7 -20 -130z"/>
<path d="M3950 2230 l0 -130 70 0 c64 0 70 2 70 21 0 18 -5 20 -47 18 l-48 -3
-3 41 -3 42 41 3 c54 4 56 22 3 26 l-43 3 0 43 0 42 47 0 c28 -1 48 4 50 12 4
9 -14 12 -66 12 l-71 0 0 -130z"/>
<path d="M4380 2230 c0 -109 2 -130 15 -130 11 0 15 13 15 54 l0 53 38 7 c50
9 72 27 79 69 8 52 -21 77 -92 77 l-55 0 0 -130z m90 90 c24 -24 25 -38 3 -62
-29 -32 -50 -23 -55 25 -3 23 -3 45 -1 50 8 13 33 7 53 -13z"/>
<path d="M5328 2230 c3 -120 5 -130 22 -130 16 0 19 9 22 63 l3 62 43 -62 c33
-49 48 -63 68 -63 25 0 25 0 -16 59 l-41 59 25 25 c30 30 33 62 10 95 -13 19
-24 22 -77 22 l-62 0 3 -130z m92 90 c11 -11 20 -25 20 -32 0 -19 -31 -48 -52
-48 -15 0 -18 8 -18 50 0 56 15 65 50 30z"/>
<path d="M5780 2255 c0 -99 2 -107 25 -130 19 -20 34 -25 72 -25 84 1 103 33
103 171 0 72 -3 89 -15 89 -12 0 -15 -16 -15 -87 0 -109 -12 -137 -61 -141
-59 -5 -69 13 -69 129 0 92 -1 99 -20 99 -19 0 -20 -7 -20 -105z"/>
<path d="M6440 2230 l0 -130 76 0 c66 0 75 2 72 18 -3 13 -14 17 -53 18 l-50
1 -3 41 -3 41 42 3 c61 4 64 28 4 28 l-46 0 3 43 3 42 48 3 c73 5 55 22 -23
22 l-70 0 0 -130z"/>
<path d="M7507 2233 c2 -69 5 -128 8 -131 2 -2 11 -2 20 1 11 5 15 21 15 62 0
66 7 65 55 -11 23 -36 41 -54 55 -54 27 0 26 7 -15 67 l-35 52 25 25 c32 32
33 79 3 100 -14 10 -44 16 -78 16 l-55 0 2 -127z m91 91 c12 -8 22 -22 22 -31
0 -23 -29 -53 -52 -53 -15 0 -18 8 -18 50 0 54 10 61 48 34z"/>
<path d="M7780 2230 c0 -123 1 -130 20 -130 19 0 20 7 20 130 0 123 -1 130
-20 130 -19 0 -20 -7 -20 -130z"/>
<path d="M8240 2252 c0 -100 2 -110 23 -130 34 -32 109 -31 142 3 23 22 25 32
25 114 0 49 3 96 6 105 4 12 0 16 -15 16 -20 0 -21 -5 -21 -97 0 -105 -3 -114
-37 -132 -31 -16 -69 4 -83 42 -6 18 -8 62 -4 109 7 75 6 78 -15 78 -20 0 -21
-4 -21 -108z"/>
<path d="M8550 2230 l0 -131 73 3 c56 2 72 6 72 18 0 11 -14 16 -52 18 l-53 3
0 110 c0 102 -1 109 -20 109 -19 0 -20 -7 -20 -130z"/>
<path d="M8742 2348 c3 -7 20 -12 39 -12 l34 -1 3 -117 c2 -109 4 -118 22
-118 18 0 20 9 22 118 l3 117 33 0 c19 0 32 5 32 12 0 10 -25 13 -96 13 -70 0
-95 -3 -92 -12z"/>
<path d="M9030 2251 c0 -106 1 -110 26 -130 38 -30 104 -28 141 3 26 23 28 28
31 130 4 103 4 106 -17 106 -21 0 -22 -4 -20 -92 2 -56 -2 -102 -9 -115 -15
-27 -48 -33 -84 -16 -28 13 -28 14 -28 118 0 98 -1 105 -20 105 -19 0 -20 -7
-20 -109z"/>
<path d="M9602 2233 l3 -128 68 -3 c63 -3 67 -2 67 18 0 20 -5 21 -47 18 -34
-2 -48 1 -47 10 1 6 2 26 3 42 1 28 4 30 41 30 29 0 40 4 40 15 0 11 -11 15
-40 15 l-40 0 0 46 0 46 45 -6 c37 -6 45 -4 45 8 0 13 -13 16 -70 16 l-71 0 3
-127z"/>
<path d="M5440 1842 c-36 -6 -76 -37 -90 -72 -20 -48 -8 -117 27 -152 26 -25
38 -30 85 -30 64 -1 78 5 78 34 0 15 -3 18 -12 11 -38 -30 -115 -15 -137 25
-6 12 -11 40 -11 65 0 71 58 110 124 83 34 -14 36 -14 36 4 0 18 -6 21 -65 34
-5 1 -21 0 -35 -2z"/>
<path d="M600 1715 c0 -118 1 -125 20 -125 19 0 20 7 20 125 0 118 -1 125 -20
125 -19 0 -20 -7 -20 -125z"/>
<path d="M757 1833 c-3 -5 -5 -61 -5 -125 -1 -97 1 -118 13 -118 12 0 15 18
15 88 l1 87 74 -80 c41 -44 75 -83 75 -87 0 -5 7 -8 15 -8 13 0 15 21 15 125
0 103 -3 125 -15 125 -11 0 -15 -19 -17 -86 l-3 -86 -75 85 c-75 85 -85 94
-93 80z"/>
<path d="M1050 1825 c0 -11 11 -15 40 -15 l40 0 0 -110 c0 -103 1 -110 20
-110 19 0 20 7 20 110 l0 110 35 0 c24 0 35 5 35 15 0 12 -17 15 -95 15 -78 0
-95 -3 -95 -15z"/>
<path d="M1330 1715 l0 -125 70 0 c56 0 70 3 70 15 0 11 -12 15 -50 15 l-50 0
0 40 0 40 40 0 c29 0 40 4 40 15 0 11 -11 15 -40 15 l-40 0 0 40 0 40 45 0
c33 0 45 4 45 15 0 12 -14 15 -65 15 l-65 0 0 -125z"/>
<path d="M1560 1715 l0 -125 70 0 c56 0 70 3 70 15 0 11 -12 15 -50 15 l-50 0
0 110 c0 103 -1 110 -20 110 -19 0 -20 -7 -20 -125z"/>
<path d="M1800 1715 l0 -125 70 0 c56 0 70 3 70 15 0 12 -13 15 -55 15 l-55 0
0 110 c0 91 -3 110 -15 110 -13 0 -15 -21 -15 -125z"/>
<path d="M2030 1715 c0 -118 1 -125 20 -125 19 0 20 7 20 125 0 118 -1 125
-20 125 -19 0 -20 -7 -20 -125z"/>
<path d="M2242 1824 c-47 -33 -67 -120 -40 -178 16 -36 88 -70 130 -61 69 14
68 13 68 66 0 37 -4 49 -15 49 -11 0 -15 -11 -15 -40 0 -34 -4 -41 -25 -46
-90 -23 -158 104 -93 173 19 21 30 24 68 21 25 -3 53 -8 62 -12 21 -10 19 21
-3 35 -23 15 -112 10 -137 -7z"/>
<path d="M2500 1715 l0 -125 70 0 c56 0 70 3 70 15 0 11 -12 15 -50 15 l-50 0
0 40 0 40 40 0 c29 0 40 4 40 15 0 11 -11 15 -40 15 l-40 0 0 40 0 40 50 0
c40 0 48 3 44 15 -5 11 -22 15 -70 15 l-64 0 0 -125z"/>
<path d="M2740 1715 c0 -103 3 -125 15 -125 11 0 15 19 17 87 l3 86 74 -86
c41 -48 78 -87 83 -87 4 0 8 56 8 125 0 108 -2 125 -16 125 -14 0 -16 -12 -13
-85 2 -47 2 -85 -1 -84 -3 0 -38 38 -79 85 -41 46 -78 84 -83 84 -4 0 -8 -56
-8 -125z"/>
<path d="M3030 1825 c0 -10 11 -15 35 -15 l35 0 0 -110 c0 -103 1 -110 20
-110 19 0 20 7 20 110 l0 110 35 0 c24 0 35 5 35 15 0 12 -17 15 -90 15 -73 0
-90 -3 -90 -15z"/>
<path d="M3300 1715 l0 -125 70 0 c56 0 70 3 70 15 0 11 -12 15 -50 15 l-50 0
0 40 0 40 40 0 c29 0 40 4 40 15 0 11 -11 15 -40 15 l-40 0 0 40 0 40 45 0
c33 0 45 4 45 15 0 12 -14 15 -65 15 l-65 0 0 -125z"/>
<path d="M3885 1807 c-88 -88 -33 -221 92 -219 45 0 73 15 73 38 0 10 -7 10
-35 -2 -45 -18 -78 -10 -111 29 -21 25 -25 38 -21 70 10 71 65 107 127 80 41
-17 40 -17 40 6 0 24 -19 31 -82 31 -43 0 -54 -4 -83 -33z"/>
<path d="M4200 1827 c-97 -49 -87 -201 15 -235 141 -47 246 128 134 223 -34
28 -105 34 -149 12z m118 -30 c50 -41 51 -119 1 -161 -42 -35 -74 -33 -115 8
-41 41 -46 89 -13 130 36 45 89 55 127 23z"/>
<path d="M4490 1715 c0 -103 3 -125 15 -125 11 0 15 19 17 86 l3 87 74 -84
c41 -46 78 -85 83 -87 4 -2 8 53 8 122 0 110 -2 126 -16 126 -15 0 -16 -11
-12 -85 3 -47 3 -85 -1 -84 -3 0 -39 39 -79 85 -41 46 -78 84 -83 84 -5 0 -9
-55 -9 -125z"/>
<path d="M4810 1715 c0 -112 2 -125 18 -125 15 0 17 8 14 58 -2 33 -2 72 0 88
3 28 6 25 77 -59 41 -48 78 -87 83 -87 4 0 8 56 8 125 0 103 -3 125 -15 125
-11 0 -15 -18 -17 -84 l-3 -84 -74 84 c-40 46 -77 84 -82 84 -5 0 -9 -56 -9
-125z"/>
<path d="M5120 1715 l0 -125 70 0 c56 0 70 3 70 15 0 11 -12 15 -50 15 l-50 0
0 40 0 40 40 0 c29 0 40 4 40 15 0 11 -11 15 -40 15 l-40 0 0 40 0 40 45 0
c33 0 45 4 45 15 0 12 -14 15 -65 15 l-65 0 0 -125z"/>
<path d="M5620 1825 c0 -10 11 -15 35 -15 l35 0 0 -110 c0 -103 1 -110 20
-110 19 0 20 7 20 110 l0 110 35 0 c24 0 35 5 35 15 0 12 -17 15 -90 15 -73 0
-90 -3 -90 -15z"/>
<path d="M5890 1715 l0 -125 70 0 c56 0 70 3 70 15 0 11 -12 15 -50 15 l-50 0
0 40 0 40 40 0 c29 0 40 4 40 15 0 11 -11 15 -40 15 l-40 0 0 40 0 40 45 0
c33 0 45 4 45 15 0 12 -14 15 -65 15 l-65 0 0 -125z"/>
<path d="M6112 1715 l-2 -125 70 0 c56 0 70 3 70 15 0 11 -12 15 -50 15 l-50
0 0 40 0 40 40 0 c29 0 40 4 40 15 0 11 -11 15 -40 15 l-40 0 0 40 0 40 45 0
c33 0 45 4 45 15 0 12 -14 15 -62 15 l-63 0 -3 -125z"/>
<path d="M6490 1715 l0 -125 70 0 c56 0 70 3 70 15 0 11 -12 15 -50 15 l-50 0
0 40 0 40 40 0 c29 0 40 4 40 15 0 11 -11 15 -40 15 l-40 0 0 40 0 40 45 0
c33 0 45 4 45 15 0 12 -14 15 -65 15 l-65 0 0 -125z"/>
<path d="M6700 1825 c0 -10 11 -15 35 -15 l35 0 0 -110 c0 -103 1 -110 20
-110 19 0 20 7 20 110 l0 110 35 0 c24 0 35 5 35 15 0 12 -17 15 -90 15 -73 0
-90 -3 -90 -15z"/>
<path d="M7143 1732 c-60 -149 -58 -142 -39 -142 10 0 22 13 27 30 10 27 15
30 56 30 41 0 46 -3 56 -30 8 -21 18 -30 34 -30 l23 0 -19 48 c-11 26 -32 81
-49 122 -16 41 -33 75 -38 77 -5 1 -28 -46 -51 -105z m60 -7 l16 -45 -34 0
-34 0 17 45 c9 25 17 45 18 45 1 0 9 -20 17 -45z"/>
<path d="M7380 1739 c0 -55 4 -109 10 -119 24 -46 132 -44 165 3 22 31 22 217
0 217 -12 0 -15 -17 -15 -95 0 -82 -3 -98 -20 -115 -27 -27 -56 -25 -85 5 -23
22 -25 32 -25 115 0 73 -3 90 -15 90 -12 0 -15 -18 -15 -101z"/>
<path d="M7640 1825 c0 -10 11 -15 35 -15 l35 0 0 -110 c0 -103 1 -110 20
-110 19 0 20 7 20 110 l0 110 35 0 c24 0 35 5 35 15 0 12 -17 15 -90 15 -73 0
-90 -3 -90 -15z"/>
<path d="M7914 1807 c-28 -26 -37 -42 -41 -78 -10 -86 41 -143 128 -142 84 0
129 48 129 137 0 41 -5 53 -34 82 -31 31 -40 34 -90 34 -50 0 -61 -4 -92 -33z
m133 -7 c38 -23 59 -83 44 -123 -11 -30 -57 -67 -82 -67 -100 0 -137 156 -47
195 43 19 47 18 85 -5z"/>
<path d="M8227 1728 c-21 -138 -21 -138 -2 -138 11 0 15 11 16 38 0 20 4 57 8
82 l7 45 39 -82 c21 -46 41 -83 44 -83 3 0 19 32 36 71 16 39 33 73 37 75 4 2
10 -17 13 -43 12 -94 16 -103 37 -103 16 0 19 5 15 23 -3 12 -11 65 -17 117
-14 103 -24 127 -39 89 -5 -14 -23 -56 -41 -94 l-32 -70 -44 90 c-25 50 -48
91 -52 93 -5 1 -16 -48 -25 -110z"/>
<path d="M8576 1721 c-25 -66 -46 -122 -46 -125 0 -4 7 -6 15 -6 8 0 21 15 28
33 13 31 17 33 57 29 36 -4 44 -9 54 -33 9 -27 46 -42 46 -20 0 18 -92 241
-100 241 -4 0 -28 -54 -54 -119z m53 -39 c-17 -2 -33 -2 -35 1 -2 2 3 21 12
43 l17 39 18 -40 18 -40 -30 -3z"/>
<path d="M8770 1825 c0 -10 11 -15 35 -15 l35 0 0 -110 c0 -103 1 -110 20
-110 19 0 20 7 20 110 l0 110 35 0 c24 0 35 5 35 15 0 12 -17 15 -90 15 -73 0
-90 -3 -90 -15z"/>
<path d="M9030 1715 c0 -118 1 -125 20 -125 19 0 20 7 20 125 0 118 -1 125
-20 125 -19 0 -20 -7 -20 -125z"/>
<path d="M9181 1821 c-12 -12 -21 -34 -21 -51 0 -33 19 -55 68 -82 33 -18 41
-45 20 -66 -17 -17 -48 -15 -70 5 -17 15 -18 15 -18 -6 0 -54 107 -46 130 9
18 43 -1 79 -55 112 -50 31 -57 53 -20 70 19 9 29 7 50 -6 26 -17 27 -17 23 6
-2 19 -10 23 -45 26 -32 2 -47 -2 -62 -17z"/>
<path d="M9380 1715 l0 -125 65 0 c51 0 65 3 65 15 0 11 -12 15 -45 15 l-45 0
0 40 0 40 40 0 c29 0 40 4 40 15 0 11 -11 15 -40 15 l-40 0 0 40 0 40 45 0
c33 0 45 4 45 15 0 12 -14 15 -65 15 l-65 0 0 -125z"/>
<path d="M9600 1715 l0 -125 70 0 c56 0 70 3 70 15 0 11 -12 15 -50 15 l-50 0
0 40 0 40 40 0 c29 0 40 4 40 15 0 11 -11 15 -40 15 l-40 0 0 40 0 40 45 0
c33 0 45 4 45 15 0 12 -14 15 -65 15 l-65 0 0 -125z"/>
<path d="M3536 1590 c-18 -47 -20 -60 -6 -60 10 0 50 71 50 90 0 26 -29 6 -44
-30z"/>
</g>
</svg>
